<?xml version="1.0" encoding="UTF-8" standalone="no"?>
<!-- Created with Inkscape (http://www.inkscape.org/) -->

<svg
   xmlns:dc="http://purl.org/dc/elements/1.1/"
   xmlns:cc="http://creativecommons.org/ns#"
   xmlns:rdf="http://www.w3.org/1999/02/22-rdf-syntax-ns#"
   xmlns:svg="http://www.w3.org/2000/svg"
   xmlns="http://www.w3.org/2000/svg"
   xmlns:sodipodi="http://sodipodi.sourceforge.net/DTD/sodipodi-0.dtd"
   xmlns:inkscape="http://www.inkscape.org/namespaces/inkscape"
   width="210mm"
   height="297mm"
   viewBox="0 0 210 297"
   version="1.1"
   id="svg8"
   inkscape:version="0.92.4 (5da689c313, 2019-01-14)"
   sodipodi:docname="clip3.4.svg">
  <defs
     id="defs2" />
  <sodipodi:namedview
     id="base"
     pagecolor="#ffffff"
     bordercolor="#666666"
     borderopacity="1.0"
     inkscape:pageopacity="0.0"
     inkscape:pageshadow="2"
     inkscape:zoom="0.98994949"
     inkscape:cx="433.51484"
     inkscape:cy="512.55647"
     inkscape:document-units="mm"
     inkscape:current-layer="layer1"
     showgrid="false"
     inkscape:window-width="1278"
     inkscape:window-height="1368"
     inkscape:window-x="-7"
     inkscape:window-y="0"
     inkscape:window-maximized="0" />
  <metadata
     id="metadata5">
    <rdf:RDF>
      <cc:Work
         rdf:about="">
        <dc:format>image/svg+xml</dc:format>
        <dc:type
           rdf:resource="http://purl.org/dc/dcmitype/StillImage" />
        <dc:title></dc:title>
      </cc:Work>
    </rdf:RDF>
  </metadata>
  <g
     inkscape:label="Layer 1"
     inkscape:groupmode="layer"
     id="layer1">
    <path
       style="color:#000000;font-style:normal;font-variant:normal;font-weight:normal;font-stretch:normal;font-size:medium;line-height:normal;font-family:sans-serif;font-variant-ligatures:normal;font-variant-position:normal;font-variant-caps:normal;font-variant-numeric:normal;font-variant-alternates:normal;font-feature-settings:normal;text-indent:0;text-align:start;text-decoration:none;text-decoration-line:none;text-decoration-style:solid;text-decoration-color:#000000;letter-spacing:normal;word-spacing:normal;text-transform:none;writing-mode:lr-tb;direction:ltr;text-orientation:mixed;dominant-baseline:auto;baseline-shift:baseline;text-anchor:start;white-space:normal;shape-padding:0;clip-rule:nonzero;display:inline;overflow:visible;visibility:visible;opacity:1;isolation:auto;mix-blend-mode:normal;color-interpolation:sRGB;color-interpolation-filters:linearRGB;solid-color:#000000;solid-opacity:1;vector-effect:none;fill:#000000;fill-opacity:1;fill-rule:nonzero;stroke:none;stroke-width:5;stroke-linecap:butt;stroke-linejoin:round;stroke-miterlimit:4;stroke-dasharray:none;stroke-dashoffset:0;stroke-opacity:1;color-rendering:auto;image-rendering:auto;shape-rendering:auto;text-rendering:auto;enable-background:accumulate"
       d="m 182.3116,73.74102 c -8.46433,0 -14.43938,1.693722 -18.32602,3.449402 -3.88662,1.755679 -5.84408,3.736205 -5.84408,3.736207 -0.55897,0.58342 -0.75166,1.426853 -0.50178,2.195214 l 7.17837,22.070487 a 2.50025,2.50025 0 0 0 -0.007,0.1757 v 28.80599 c -9.05844,5.77455 -15.0797,15.90966 -15.0797,27.42469 0,17.91963 14.58018,32.49982 32.49982,32.49982 17.91964,0 32.49983,-14.58019 32.49983,-32.49982 0,-11.44722 -5.95007,-21.53087 -14.91951,-27.32237 v -28.90831 a 2.50025,2.50025 0 0 0 -0.009,-0.17363 l 7.17837,-22.072557 c 0.24988,-0.768361 0.0572,-1.611794 -0.50178,-2.195214 0,0 -1.95694,-1.980528 -5.84357,-3.736207 -3.88663,-1.75568 -9.86013,-3.449402 -18.32446,-3.449402 z m -12.50001,34.12712 h 25.00002 v 8.97102 c -3.441,3.04204 -7.88017,4.7377 -12.50001,4.7377 -4.61901,0 -9.05902,-1.69515 -12.50001,-4.73614 z m 25.00002,15.17323 v 8.59172 c -3.87145,-1.63154 -8.12231,-2.53473 -12.58011,-2.53473 -4.39663,0 -8.59135,0.87972 -12.41991,2.4691 v -8.52557 c 3.73053,2.29124 8.05183,3.53518 12.50001,3.53518 4.44871,0 8.76974,-1.24392 12.50001,-3.5357 z m -12.58011,11.05721 c 15.21744,0 27.50013,12.28268 27.50013,27.50013 0,15.21743 -12.28269,27.50013 -27.50013,27.50013 -15.21744,0 -27.50013,-12.2827 -27.50013,-27.50013 0,-15.21745 12.28269,-27.50013 27.50013,-27.50013 z"
       id="path815"
       inkscape:connector-curvature="0" />
    <path
       style="opacity:1;fill:none;fill-opacity:1;stroke:#000000;stroke-width:5;stroke-linejoin:round;stroke-miterlimit:4;stroke-dasharray:none;stroke-dashoffset:0;stroke-opacity:1"
       id="path833-7"
       sodipodi:type="arc"
       sodipodi:cx="145.12735"
       sodipodi:cy="11.648591"
       sodipodi:rx="21.381561"
       sodipodi:ry="21.381561"
       sodipodi:start="0.78539816"
       sodipodi:end="2.3561945"
       d="M 160.2464,26.767638 A 21.381561,21.381561 0 0 1 145.12735,33.030152 21.381561,21.381561 0 0 1 130.0083,26.767638"
       sodipodi:open="true" />
    <path
       style="color:#000000;font-style:normal;font-variant:normal;font-weight:normal;font-stretch:normal;font-size:medium;line-height:normal;font-family:sans-serif;font-variant-ligatures:normal;font-variant-position:normal;font-variant-caps:normal;font-variant-numeric:normal;font-variant-alternates:normal;font-feature-settings:normal;text-indent:0;text-align:start;text-decoration:none;text-decoration-line:none;text-decoration-style:solid;text-decoration-color:#000000;letter-spacing:normal;word-spacing:normal;text-transform:none;writing-mode:lr-tb;direction:ltr;text-orientation:mixed;dominant-baseline:auto;baseline-shift:baseline;text-anchor:start;white-space:normal;shape-padding:0;clip-rule:nonzero;display:inline;overflow:visible;visibility:visible;opacity:1;isolation:auto;mix-blend-mode:normal;color-interpolation:sRGB;color-interpolation-filters:linearRGB;solid-color:#000000;solid-opacity:1;vector-effect:none;fill:#000000;fill-opacity:1;fill-rule:nonzero;stroke:none;stroke-width:5;stroke-linecap:butt;stroke-linejoin:round;stroke-miterlimit:4;stroke-dasharray:none;stroke-dashoffset:0;stroke-opacity:1;color-rendering:auto;image-rendering:auto;shape-rendering:auto;text-rendering:auto;enable-background:accumulate"
       d="m 91.246869,25.06479 c -8.464324,0 -14.43733,1.693722 -18.323951,3.449402 -3.886628,1.75568 -5.844077,3.736206 -5.844087,3.736206 -0.55897,0.583423 -0.751668,1.426852 -0.501777,2.195215 l 7.330302,22.537642 V 86.605736 H 78.90705 V 59.105605 c 0,0 -4.804595,-20.045215 12.500012,-20.312484 17.304608,-0.26727 12.500008,20.312484 12.500008,20.312484 v 27.500131 h 5.00022 V 56.606017 c -5.5e-4,-0.155576 -0.0156,-0.310761 -0.045,-0.463537 l 7.05641,-21.696867 c 0.2499,-0.768363 0.0572,-1.611792 -0.50177,-2.195215 0,0 -1.95695,-1.980526 -5.84357,-3.736206 -3.88663,-1.75568 -9.862187,-3.449402 -18.326531,-3.449402 z"
       id="rect817-5"
       inkscape:connector-curvature="0"
       sodipodi:nodetypes="cscccccczcccccccscc" />
    <path
       style="opacity:1;fill:none;fill-opacity:1;stroke:#000000;stroke-width:5;stroke-linejoin:round;stroke-miterlimit:4;stroke-dasharray:none;stroke-dashoffset:0;stroke-opacity:1"
       d="M 19.47777,36.626039 V 6.6260384 H 49.477768 V 36.626039"
       id="rect817-3"
       inkscape:connector-curvature="0"
       sodipodi:nodetypes="cccc" />
    <path
       style="opacity:1;fill:none;fill-opacity:1;stroke:#000000;stroke-width:5;stroke-linejoin:round;stroke-miterlimit:4;stroke-dasharray:none;stroke-dashoffset:0;stroke-opacity:1"
       id="path833-4"
       sodipodi:type="arc"
       sodipodi:cx="34.477768"
       sodipodi:cy="3.9533448"
       sodipodi:rx="21.381561"
       sodipodi:ry="21.381561"
       sodipodi:start="0.78539816"
       sodipodi:end="2.3561945"
       d="M 49.596815,19.072392 A 21.381561,21.381561 0 0 1 34.477768,25.334906 21.381561,21.381561 0 0 1 19.358721,19.072392"
       sodipodi:open="true" />
    <path
       sodipodi:type="star"
       style="opacity:1;fill:#000000;fill-opacity:1;stroke:#000000;stroke-width:5;stroke-linejoin:round;stroke-miterlimit:4;stroke-dasharray:none;stroke-dashoffset:0;stroke-opacity:1"
       id="path900"
       sodipodi:sides="3"
       sodipodi:cx="48.108515"
       sodipodi:cy="109.10952"
       sodipodi:r1="20.745693"
       sodipodi:r2="10.372847"
       sodipodi:arg1="0.78539816"
       sodipodi:arg2="1.8325957"
       inkscape:flatsided="false"
       inkscape:rounded="0"
       inkscape:randomized="0"
       d="m 62.777937,123.77894 -17.35411,-4.65002 -17.354111,-4.65002 12.70409,-12.70409 12.704091,-12.704091 4.65002,17.354111 z"
       inkscape:transform-center-x="2.6846907"
       inkscape:transform-center-y="-2.6846911" />
    <path
       style="color:#000000;font-style:normal;font-variant:normal;font-weight:normal;font-stretch:normal;font-size:medium;line-height:normal;font-family:sans-serif;font-variant-ligatures:normal;font-variant-position:normal;font-variant-caps:normal;font-variant-numeric:normal;font-variant-alternates:normal;font-feature-settings:normal;text-indent:0;text-align:start;text-decoration:none;text-decoration-line:none;text-decoration-style:solid;text-decoration-color:#000000;letter-spacing:normal;word-spacing:normal;text-transform:none;writing-mode:lr-tb;direction:ltr;text-orientation:mixed;dominant-baseline:auto;baseline-shift:baseline;text-anchor:start;white-space:normal;shape-padding:0;clip-rule:nonzero;display:inline;overflow:visible;visibility:visible;opacity:1;isolation:auto;mix-blend-mode:normal;color-interpolation:sRGB;color-interpolation-filters:linearRGB;solid-color:#000000;solid-opacity:1;vector-effect:none;fill:#ff0000;fill-opacity:1;fill-rule:nonzero;stroke:none;stroke-width:18.89763832;stroke-linecap:butt;stroke-linejoin:round;stroke-miterlimit:4;stroke-dasharray:none;stroke-dashoffset:0;stroke-opacity:1;color-rendering:auto;image-rendering:auto;shape-rendering:auto;text-rendering:auto;enable-background:accumulate"
       d="M 156.07617 933.49805 C 152.88277 933.66661 149.99025 935.43999 148.39062 938.20898 L 117.86719 991.07812 L 87.349609 1043.9395 C 83.715049 1050.2372 88.258 1058.1091 95.529297 1058.1133 L 156.57812 1058.1133 L 217.61719 1058.1133 C 224.88848 1058.1095 229.43143 1050.2372 225.79688 1043.9395 L 195.28125 991.07812 L 164.75586 938.20898 C 162.97806 935.1315 159.62528 933.31054 156.07617 933.49805 z M 156.57422 981.88086 A 11.338583 11.338583 0 0 1 167.91211 993.2207 A 11.338583 11.338583 0 0 1 156.57422 1004.5586 A 11.338583 11.338583 0 0 1 145.23438 993.2207 A 11.338583 11.338583 0 0 1 156.57422 981.88086 z "
       transform="scale(0.26458333)"
       id="path902" />
    <path
       style="color:#000000;font-style:normal;font-variant:normal;font-weight:normal;font-stretch:normal;font-size:medium;line-height:normal;font-family:sans-serif;font-variant-ligatures:normal;font-variant-position:normal;font-variant-caps:normal;font-variant-numeric:normal;font-variant-alternates:normal;font-feature-settings:normal;text-indent:0;text-align:start;text-decoration:none;text-decoration-line:none;text-decoration-style:solid;text-decoration-color:#000000;letter-spacing:normal;word-spacing:normal;text-transform:none;writing-mode:lr-tb;direction:ltr;text-orientation:mixed;dominant-baseline:auto;baseline-shift:baseline;text-anchor:start;white-space:normal;shape-padding:0;clip-rule:nonzero;display:inline;overflow:visible;visibility:visible;opacity:1;isolation:auto;mix-blend-mode:normal;color-interpolation:sRGB;color-interpolation-filters:linearRGB;solid-color:#000000;solid-opacity:1;vector-effect:none;fill:#800080;fill-opacity:1;fill-rule:nonzero;stroke:none;stroke-width:18.89763832;stroke-linecap:butt;stroke-linejoin:round;stroke-miterlimit:4;stroke-dasharray:none;stroke-dashoffset:0;stroke-opacity:1;color-rendering:auto;image-rendering:auto;shape-rendering:auto;text-rendering:auto;enable-background:accumulate"
       d="M 95.529297 933.49219 C 88.258 933.49634 83.715049 941.36631 87.349609 947.66406 L 117.86719 1000.5273 L 148.39062 1053.3887 C 149.98845 1056.1605 152.8813 1057.9354 156.07617 1058.1055 C 159.62685 1058.2915 162.98 1056.469 164.75586 1053.3887 L 195.28125 1000.5273 L 225.79688 947.66406 C 229.43143 941.36631 224.88848 933.49597 217.61719 933.49219 L 156.57812 933.49219 L 95.529297 933.49219 z M 156.57422 981.88086 A 11.338583 11.338583 0 0 1 167.91211 993.2207 A 11.338583 11.338583 0 0 1 156.57422 1004.5586 A 11.338583 11.338583 0 0 1 145.23438 993.2207 A 11.338583 11.338583 0 0 1 156.57422 981.88086 z "
       transform="scale(0.26458333)"
       id="path902-3" />
    <path
       style="color:#000000;font-style:normal;font-variant:normal;font-weight:normal;font-stretch:normal;font-size:medium;line-height:normal;font-family:sans-serif;font-variant-ligatures:normal;font-variant-position:normal;font-variant-caps:normal;font-variant-numeric:normal;font-variant-alternates:normal;font-feature-settings:normal;text-indent:0;text-align:start;text-decoration:none;text-decoration-line:none;text-decoration-style:solid;text-decoration-color:#000000;letter-spacing:normal;word-spacing:normal;text-transform:none;writing-mode:lr-tb;direction:ltr;text-orientation:mixed;dominant-baseline:auto;baseline-shift:baseline;text-anchor:start;white-space:normal;shape-padding:0;clip-rule:nonzero;display:inline;overflow:visible;visibility:visible;opacity:1;isolation:auto;mix-blend-mode:normal;color-interpolation:sRGB;color-interpolation-filters:linearRGB;solid-color:#000000;solid-opacity:1;vector-effect:none;fill:#000000;fill-opacity:1;fill-rule:nonzero;stroke:none;stroke-width:5;stroke-linecap:butt;stroke-linejoin:round;stroke-miterlimit:4;stroke-dasharray:none;stroke-dashoffset:0;stroke-opacity:1;color-rendering:auto;image-rendering:auto;shape-rendering:auto;text-rendering:auto;enable-background:accumulate"
       d="m 182.66696,-0.62243351 c -8.46405,7.144e-5 -14.43895,1.69375931 -18.32549,3.44940201 -3.88663,1.7556823 -5.84409,3.736197 -5.84409,3.7362076 -0.55896,0.5834195 -0.75167,1.4268556 -0.50178,2.1952135 l 7.17837,22.0704884 a 2.50025,2.50025 0 0 0 -0.007,0.175699 v 28.805994 c -2.30208,1.467517 -4.40654,3.217836 -6.26732,5.199682 h 7.46725 c 4.54386,-3.317865 10.14813,-5.27513 16.22071,-5.27513 6.07252,0 11.67636,1.957334 16.2202,5.27513 h 7.46983 c -1.81791,-1.936448 -3.86992,-3.650816 -6.11022,-5.097362 V 31.004577 a 2.50025,2.50025 0 0 0 -0.009,-0.173633 l 7.17837,-22.0725544 c 0.24988,-0.7683579 0.0572,-1.611794 -0.50177,-2.1952135 0,0 -1.95696,-1.9805253 -5.84358,-3.7362076 -3.88656,-1.7556427 -9.85989,-3.44933057 -18.32394,-3.44940201 z M 170.16747,33.504683 h 25.00002 v 8.971029 c -3.441,3.042031 -7.88016,4.737695 -12.50001,4.737695 -4.61901,0 -9.05902,-1.695146 -12.50001,-4.736145 z m 25.00002,15.173235 v 8.591722 c -3.87145,-1.63154 -8.12231,-2.534729 -12.58011,-2.534729 -4.39662,0 -8.59135,0.879721 -12.41991,2.469102 v -8.525579 c 3.73053,2.291249 8.05184,3.535185 12.50001,3.535185 4.44871,0 8.76974,-1.243933 12.50001,-3.535701 z"
       id="path815-0"
       inkscape:connector-curvature="0" />
    <path
       inkscape:connector-curvature="0"
       style="color:#000000;font-style:normal;font-variant:normal;font-weight:normal;font-stretch:normal;font-size:medium;line-height:normal;font-family:sans-serif;font-variant-ligatures:normal;font-variant-position:normal;font-variant-caps:normal;font-variant-numeric:normal;font-variant-alternates:normal;font-feature-settings:normal;text-indent:0;text-align:start;text-decoration:none;text-decoration-line:none;text-decoration-style:solid;text-decoration-color:#000000;letter-spacing:normal;word-spacing:normal;text-transform:none;writing-mode:lr-tb;direction:ltr;text-orientation:mixed;dominant-baseline:auto;baseline-shift:baseline;text-anchor:start;white-space:normal;shape-padding:0;clip-rule:nonzero;display:inline;overflow:visible;visibility:visible;opacity:1;isolation:auto;mix-blend-mode:normal;color-interpolation:sRGB;color-interpolation-filters:linearRGB;solid-color:#000000;solid-opacity:1;vector-effect:none;fill:#800080;fill-opacity:1;fill-rule:nonzero;stroke:none;stroke-width:5;stroke-linecap:butt;stroke-linejoin:round;stroke-miterlimit:4;stroke-dasharray:none;stroke-dashoffset:0;stroke-opacity:1;color-rendering:auto;image-rendering:auto;shape-rendering:auto;text-rendering:auto;enable-background:accumulate"
       d="m 145.81412,244.96613 c -1.92386,0.001 -3.12585,2.08336 -2.16421,3.74964 l 8.07445,13.98673 8.07599,13.98625 c 0.42276,0.73337 1.18816,1.20298 2.03347,1.24799 0.93945,0.0492 1.82663,-0.43299 2.2965,-1.24799 l 8.07651,-13.98625 8.07392,-13.98673 c 0.96165,-1.66628 -0.24034,-3.74864 -2.1642,-3.74964 h -16.14993 z m 16.15147,12.80284 a 3.0000001,3.0000001 0 0 1 2.99982,3.00033 3.0000001,3.0000001 0 0 1 -2.99982,2.99982 3.0000001,3.0000001 0 0 1 -3.00033,-2.99982 3.0000001,3.0000001 0 0 1 3.00033,-3.00033 z"
       id="path902-3-3" />
    <path
       style="color:#000000;font-style:normal;font-variant:normal;font-weight:normal;font-stretch:normal;font-size:medium;line-height:normal;font-family:sans-serif;font-variant-ligatures:normal;font-variant-position:normal;font-variant-caps:normal;font-variant-numeric:normal;font-variant-alternates:normal;font-feature-settings:normal;text-indent:0;text-align:start;text-decoration:none;text-decoration-line:none;text-decoration-style:solid;text-decoration-color:#000000;letter-spacing:normal;word-spacing:normal;text-transform:none;writing-mode:lr-tb;direction:ltr;text-orientation:mixed;dominant-baseline:auto;baseline-shift:baseline;text-anchor:start;white-space:normal;shape-padding:0;clip-rule:nonzero;display:inline;overflow:visible;visibility:visible;opacity:1;isolation:auto;mix-blend-mode:normal;color-interpolation:sRGB;color-interpolation-filters:linearRGB;solid-color:#000000;solid-opacity:1;vector-effect:none;fill:#000000;fill-opacity:1;fill-rule:nonzero;stroke:none;stroke-width:5;stroke-linecap:butt;stroke-linejoin:round;stroke-miterlimit:4;stroke-dasharray:none;stroke-dashoffset:0;stroke-opacity:1;color-rendering:auto;image-rendering:auto;shape-rendering:auto;text-rendering:auto;enable-background:accumulate"
       d="m 102.44461,127.77528 c -8.464326,0 -14.439376,1.69372 -18.326016,3.4494 -3.88662,1.75568 -5.84408,3.7362 -5.84408,3.73621 -0.55897,0.58342 -0.75166,1.42685 -0.50178,2.19521 l 7.17837,22.07049 c -0.0044,0.0585 -0.0067,0.11707 -0.007,0.1757 l 0,49.92028 c -9.05844,5.77455 -15.0797,15.90966 -15.0797,27.42469 0,17.91963 14.58018,32.49982 32.499816,32.49982 17.91964,0 32.49983,-14.58019 32.49983,-32.49982 0,-11.44722 -5.95006,-21.53087 -14.91951,-27.32237 l 0,-50.0226 c -9.9e-4,-0.058 -0.004,-0.11588 -0.009,-0.17363 l 7.17837,-22.07256 c 0.24988,-0.76836 0.0572,-1.61179 -0.50178,-2.19521 0,0 -1.95694,-1.98053 -5.84357,-3.73621 -3.88663,-1.75568 -9.86013,-3.4494 -18.32445,-3.4494 z M 89.944604,161.9024 h 25.000026 v 8.97102 c -3.44101,3.04204 -7.88017,4.7377 -12.50002,4.7377 -4.619005,0 -9.059016,-1.69515 -12.500006,-4.73614 z m 25.000026,15.17323 0,29.70601 c -3.87146,-1.63154 -8.12232,-2.53473 -12.58012,-2.53473 -4.396625,0 -8.591346,0.87972 -12.419906,2.4691 l 0,-29.63986 c 3.73053,2.29124 8.051829,3.53518 12.500006,3.53518 4.44872,0 8.76974,-1.24392 12.50002,-3.5357 z m -12.58012,32.1715 c 15.21744,0 27.50013,12.28268 27.50013,27.50013 0,15.21743 -12.28269,27.50013 -27.50013,27.50013 -15.217436,0 -27.500126,-12.2827 -27.500126,-27.50013 0,-15.21745 12.28269,-27.50013 27.500126,-27.50013 z"
       id="path815-3"
       inkscape:connector-curvature="0"
       sodipodi:nodetypes="cccccccssscccccscccccsccccsccscsssss" />
    <path
       style="color:#000000;font-style:normal;font-variant:normal;font-weight:normal;font-stretch:normal;font-size:medium;line-height:normal;font-family:sans-serif;font-variant-ligatures:normal;font-variant-position:normal;font-variant-caps:normal;font-variant-numeric:normal;font-variant-alternates:normal;font-feature-settings:normal;text-indent:0;text-align:start;text-decoration:none;text-decoration-line:none;text-decoration-style:solid;text-decoration-color:#000000;letter-spacing:normal;word-spacing:normal;text-transform:none;writing-mode:lr-tb;direction:ltr;text-orientation:mixed;dominant-baseline:auto;baseline-shift:baseline;text-anchor:start;white-space:normal;shape-padding:0;clip-rule:nonzero;display:inline;overflow:visible;visibility:visible;opacity:1;isolation:auto;mix-blend-mode:normal;color-interpolation:sRGB;color-interpolation-filters:linearRGB;solid-color:#000000;solid-opacity:1;vector-effect:none;fill:#000000;fill-opacity:1;fill-rule:nonzero;stroke:none;stroke-width:5;stroke-linecap:butt;stroke-linejoin:round;stroke-miterlimit:4;stroke-dasharray:none;stroke-dashoffset:0;stroke-opacity:1;color-rendering:auto;image-rendering:auto;shape-rendering:auto;text-rendering:auto;enable-background:accumulate"
       d="m 39.287609,125.64576 c -8.464324,0 -14.43733,1.69372 -18.323951,3.4494 -3.886628,1.75568 -5.844077,3.7362 -5.844087,3.7362 -0.55897,0.58343 -0.751668,1.42686 -0.501777,2.19522 l 7.330302,22.53764 0,134.12487 h 4.999694 l 0,-132.00252 c 0,0 -4.804595,-20.04521 12.500012,-20.31248 17.304609,-0.26727 12.500008,20.31248 12.500008,20.31248 l 0,132.00252 h 5.00022 l 0,-134.50211 c -5.29e-4,-0.15557 -0.01561,-0.31076 -0.045,-0.46353 l 7.056411,-21.69687 c 0.249899,-0.76836 0.0572,-1.61179 -0.501772,-2.19522 0,0 -1.956948,-1.98052 -5.843569,-3.7362 -3.886631,-1.75568 -9.862187,-3.4494 -18.326531,-3.4494 z"
       id="rect817-5-0"
       inkscape:connector-curvature="0"
       sodipodi:nodetypes="cscccccczcccccccscc" />
  </g>
  <g
     inkscape:groupmode="layer"
     id="layer2"
     inkscape:label="Layer 2"
     style="display:inline" />
  <g
     inkscape:groupmode="layer"
     id="layer3"
     inkscape:label="Layer 3"
     style="display:none">
    <path
       sodipodi:type="star"
       style="opacity:1;fill:#ff0000;fill-opacity:1;stroke:#000000;stroke-width:5;stroke-linejoin:round;stroke-miterlimit:4;stroke-dasharray:none;stroke-dashoffset:0;stroke-opacity:1"
       id="path902-6"
       sodipodi:sides="3"
       sodipodi:cx="41.426785"
       sodipodi:cy="268.13489"
       sodipodi:r1="18.649591"
       sodipodi:r2="9.3247967"
       sodipodi:arg1="0.52359878"
       sodipodi:arg2="1.5707963"
       inkscape:flatsided="false"
       inkscape:rounded="0"
       inkscape:randomized="0"
       d="m 57.577804,277.45968 -16.151019,0 -16.15102,0 8.075509,-13.98719 8.075511,-13.98719 8.07551,13.98719 z"
       inkscape:transform-center-x="1.1414724e-06"
       inkscape:transform-center-y="-4.6623987" />
    <path
       sodipodi:type="star"
       style="opacity:1;fill:#800080;fill-opacity:1;stroke:#000000;stroke-width:5;stroke-linejoin:round;stroke-miterlimit:4;stroke-dasharray:none;stroke-dashoffset:0;stroke-opacity:1"
       id="path902-3-7"
       sodipodi:sides="3"
       sodipodi:cx="41.426785"
       sodipodi:cy="-258.81033"
       sodipodi:r1="18.649591"
       sodipodi:r2="9.3247967"
       sodipodi:arg1="0.52359878"
       sodipodi:arg2="1.5707963"
       inkscape:flatsided="false"
       inkscape:rounded="0"
       inkscape:randomized="0"
       d="m 57.577804,-249.48554 -16.151019,0 -16.15102,0 8.075509,-13.98719 8.075511,-13.98719 8.07551,13.98719 z"
       inkscape:transform-center-x="1.1414724e-06"
       inkscape:transform-center-y="4.6623891"
       transform="scale(1,-1)" />
    <circle
       style="opacity:1;fill:#ff0000;fill-opacity:1;stroke:none;stroke-width:5;stroke-linejoin:round;stroke-miterlimit:4;stroke-dasharray:none;stroke-dashoffset:0;stroke-opacity:1"
       id="path921-5"
       cx="41.426785"
       cy="262.78949"
       r="3" />
    <circle
       style="opacity:1;fill:#ff0000;fill-opacity:1;stroke:none;stroke-width:5;stroke-linejoin:round;stroke-miterlimit:4;stroke-dasharray:none;stroke-dashoffset:0;stroke-opacity:1"
       id="path921-4-0"
       cx="41.426785"
       cy="262.78949"
       r="3" />
  </g>
</svg>
