<?xml version="1.0" encoding="UTF-8" standalone="no"?>
<!-- Created with Inkscape (http://www.inkscape.org/) -->

<svg
   xmlns:dc="http://purl.org/dc/elements/1.1/"
   xmlns:cc="http://creativecommons.org/ns#"
   xmlns:rdf="http://www.w3.org/1999/02/22-rdf-syntax-ns#"
   xmlns:svg="http://www.w3.org/2000/svg"
   xmlns="http://www.w3.org/2000/svg"
   xmlns:sodipodi="http://sodipodi.sourceforge.net/DTD/sodipodi-0.dtd"
   xmlns:inkscape="http://www.inkscape.org/namespaces/inkscape"
   width="210mm"
   height="297mm"
   viewBox="0 0 210 297"
   version="1.1"
   id="svg8"
   inkscape:version="0.92.4 (5da689c313, 2019-01-14)"
   sodipodi:docname="clip_pieces.svg">
  <defs
     id="defs2" />
  <sodipodi:namedview
     id="base"
     pagecolor="#ffffff"
     bordercolor="#666666"
     borderopacity="1.0"
     inkscape:pageopacity="0.0"
     inkscape:pageshadow="2"
     inkscape:zoom="1.0054167"
     inkscape:cx="411.6272"
     inkscape:cy="560.70563"
     inkscape:document-units="mm"
     inkscape:current-layer="layer1"
     showgrid="false"
     inkscape:window-width="1278"
     inkscape:window-height="1368"
     inkscape:window-x="1273"
     inkscape:window-y="0"
     inkscape:window-maximized="0" />
  <metadata
     id="metadata5">
    <rdf:RDF>
      <cc:Work
         rdf:about="">
        <dc:format>image/svg+xml</dc:format>
        <dc:type
           rdf:resource="http://purl.org/dc/dcmitype/StillImage" />
        <dc:title></dc:title>
      </cc:Work>
    </rdf:RDF>
  </metadata>
  <g
     inkscape:label="Layer 1"
     inkscape:groupmode="layer"
     id="layer1">
    <path
       inkscape:connector-curvature="0"
       style="color:#000000;font-style:normal;font-variant:normal;font-weight:normal;font-stretch:normal;font-size:medium;line-height:normal;font-family:sans-serif;font-variant-ligatures:normal;font-variant-position:normal;font-variant-caps:normal;font-variant-numeric:normal;font-variant-alternates:normal;font-feature-settings:normal;text-indent:0;text-align:start;text-decoration:none;text-decoration-line:none;text-decoration-style:solid;text-decoration-color:#000000;letter-spacing:normal;word-spacing:normal;text-transform:none;writing-mode:lr-tb;direction:ltr;text-orientation:mixed;dominant-baseline:auto;baseline-shift:baseline;text-anchor:start;white-space:normal;shape-padding:0;clip-rule:nonzero;display:inline;overflow:visible;visibility:visible;opacity:1;isolation:auto;mix-blend-mode:normal;color-interpolation:sRGB;color-interpolation-filters:linearRGB;solid-color:#000000;solid-opacity:1;vector-effect:none;fill:#ff0000;fill-opacity:1;fill-rule:nonzero;stroke:none;stroke-width:5;stroke-linecap:butt;stroke-linejoin:round;stroke-miterlimit:4;stroke-dasharray:none;stroke-dashoffset:0;stroke-opacity:1;color-rendering:auto;image-rendering:auto;shape-rendering:auto;text-rendering:auto;enable-background:accumulate"
       d="m 123.45014,20.583749 c -0.84492,0.0446 -1.61024,0.51381 -2.03347,1.24644 l -8.07599,13.98829 -8.07445,13.98624 c -0.96164,1.66627 0.24035,3.74904 2.16421,3.75015 h 16.1525 16.14993 c 1.92386,0 3.12585,-2.08388 2.1642,-3.75015 l -8.07392,-13.98624 -8.07651,-13.98829 c -0.47038,-0.81425 -1.35747,-1.29605 -2.2965,-1.24644 z m 0.13177,12.80129 a 3.0000001,3.0000001 0 0 1 2.99982,3.00033 3.0000001,3.0000001 0 0 1 -2.99982,2.99982 3.0000001,3.0000001 0 0 1 -3.00033,-2.99982 3.0000001,3.0000001 0 0 1 3.00033,-3.00033 z"
       id="path902" />
    <path
       inkscape:connector-curvature="0"
       style="color:#000000;font-style:normal;font-variant:normal;font-weight:normal;font-stretch:normal;font-size:medium;line-height:normal;font-family:sans-serif;font-variant-ligatures:normal;font-variant-position:normal;font-variant-caps:normal;font-variant-numeric:normal;font-variant-alternates:normal;font-feature-settings:normal;text-indent:0;text-align:start;text-decoration:none;text-decoration-line:none;text-decoration-style:solid;text-decoration-color:#000000;letter-spacing:normal;word-spacing:normal;text-transform:none;writing-mode:lr-tb;direction:ltr;text-orientation:mixed;dominant-baseline:auto;baseline-shift:baseline;text-anchor:start;white-space:normal;shape-padding:0;clip-rule:nonzero;display:inline;overflow:visible;visibility:visible;opacity:1;isolation:auto;mix-blend-mode:normal;color-interpolation:sRGB;color-interpolation-filters:linearRGB;solid-color:#000000;solid-opacity:1;vector-effect:none;fill:#800080;fill-opacity:1;fill-rule:nonzero;stroke:none;stroke-width:5;stroke-linecap:butt;stroke-linejoin:round;stroke-miterlimit:4;stroke-dasharray:none;stroke-dashoffset:0;stroke-opacity:1;color-rendering:auto;image-rendering:auto;shape-rendering:auto;text-rendering:auto;enable-background:accumulate"
       d="m 17.956758,20.319041 c -1.923864,0.001 -3.125853,2.08336 -2.164209,3.74964 l 8.074443,13.98674 8.075991,13.98624 c 0.422759,0.73337 1.188159,1.20298 2.033469,1.24799 0.939451,0.0492 1.826639,-0.43299 2.296502,-1.24799 l 8.076509,-13.98624 8.073927,-13.98674 c 0.961642,-1.66628 -0.240347,-3.74864 -2.164209,-3.74964 H 34.10926 Z m 16.15147,12.80284 a 3.0000001,3.0000001 0 0 1 2.999817,3.00033 3.0000001,3.0000001 0 0 1 -2.999817,2.99982 3.0000001,3.0000001 0 0 1 -3.000333,-2.99982 3.0000001,3.0000001 0 0 1 3.000333,-3.00033 z"
       id="path902-3" />
    <path
       style="color:#000000;font-style:normal;font-variant:normal;font-weight:normal;font-stretch:normal;font-size:medium;line-height:normal;font-family:sans-serif;font-variant-ligatures:normal;font-variant-position:normal;font-variant-caps:normal;font-variant-numeric:normal;font-variant-alternates:normal;font-feature-settings:normal;text-indent:0;text-align:start;text-decoration:none;text-decoration-line:none;text-decoration-style:solid;text-decoration-color:#000000;letter-spacing:normal;word-spacing:normal;text-transform:none;writing-mode:lr-tb;direction:ltr;text-orientation:mixed;dominant-baseline:auto;baseline-shift:baseline;text-anchor:start;white-space:normal;shape-padding:0;clip-rule:nonzero;display:inline;overflow:visible;visibility:visible;opacity:1;isolation:auto;mix-blend-mode:normal;color-interpolation:sRGB;color-interpolation-filters:linearRGB;solid-color:#000000;solid-opacity:1;vector-effect:none;fill:#000000;fill-opacity:1;fill-rule:nonzero;stroke:none;stroke-width:5;stroke-linecap:butt;stroke-linejoin:round;stroke-miterlimit:4;stroke-dasharray:none;stroke-dashoffset:0;stroke-opacity:1;color-rendering:auto;image-rendering:auto;shape-rendering:auto;text-rendering:auto;enable-background:accumulate"
       d="m 129.86275,102.42364 c -8.46433,0 -14.43937,1.69372 -18.32602,3.4494 -3.88661,1.75568 -5.84408,3.7362 -5.84408,3.73621 -0.55896,0.58342 -0.75166,1.42685 -0.50177,2.19521 l 7.17837,22.07049 c -0.004,0.0585 -0.007,0.11707 -0.007,0.17571 v 49.92027 c -9.05844,5.77455 -15.079705,15.90967 -15.079705,27.42469 0,17.91963 14.580185,32.49982 32.499815,32.49982 17.91964,0 32.49983,-14.58019 32.49983,-32.49982 0,-11.44721 -5.95006,-21.53086 -14.91951,-27.32237 v -50.02259 c -0.001,-0.058 -0.004,-0.11588 -0.009,-0.17363 l 7.17837,-22.07257 c 0.24988,-0.76836 0.0572,-1.61179 -0.50178,-2.19521 0,0 -1.95694,-1.98053 -5.84357,-3.73621 -3.88662,-1.75568 -9.86012,-3.4494 -18.32444,-3.4494 z m -12.5,34.12712 h 25.00002 v 8.97103 c -3.44101,3.04203 -7.88017,4.7377 -12.50002,4.7377 -4.619,0 -9.05901,-1.69516 -12.5,-4.73614 z m 25.00002,15.17323 v 29.70602 c -3.87146,-1.63154 -8.12232,-2.53473 -12.58012,-2.53473 -4.39662,0 -8.59134,0.87971 -12.4199,2.4691 v -29.63986 c 3.73053,2.29123 8.05182,3.53518 12.5,3.53518 4.44872,0 8.76974,-1.24392 12.50002,-3.53571 z m -12.58012,32.17151 c 15.21744,0 27.50013,12.28267 27.50013,27.50012 0,15.21743 -12.28269,27.50013 -27.50013,27.50013 -15.21743,0 -27.50013,-12.2827 -27.50013,-27.50013 0,-15.21745 12.2827,-27.50012 27.50013,-27.50012 z"
       id="path815-3"
       inkscape:connector-curvature="0"
       sodipodi:nodetypes="cccccccssscccccscccccsccccsccscsssss" />
    <path
       style="color:#000000;font-style:normal;font-variant:normal;font-weight:normal;font-stretch:normal;font-size:medium;line-height:normal;font-family:sans-serif;font-variant-ligatures:normal;font-variant-position:normal;font-variant-caps:normal;font-variant-numeric:normal;font-variant-alternates:normal;font-feature-settings:normal;text-indent:0;text-align:start;text-decoration:none;text-decoration-line:none;text-decoration-style:solid;text-decoration-color:#000000;letter-spacing:normal;word-spacing:normal;text-transform:none;writing-mode:lr-tb;direction:ltr;text-orientation:mixed;dominant-baseline:auto;baseline-shift:baseline;text-anchor:start;white-space:normal;shape-padding:0;clip-rule:nonzero;display:inline;overflow:visible;visibility:visible;opacity:1;isolation:auto;mix-blend-mode:normal;color-interpolation:sRGB;color-interpolation-filters:linearRGB;solid-color:#000000;solid-opacity:1;vector-effect:none;fill:#000000;fill-opacity:1;fill-rule:nonzero;stroke:none;stroke-width:5;stroke-linecap:butt;stroke-linejoin:round;stroke-miterlimit:4;stroke-dasharray:none;stroke-dashoffset:0;stroke-opacity:1;color-rendering:auto;image-rendering:auto;shape-rendering:auto;text-rendering:auto;enable-background:accumulate"
       d="m 66.70575,100.29412 c -8.464324,0 -14.43733,1.69372 -18.323951,3.4494 -3.886628,1.75568 -5.844077,3.7362 -5.844087,3.7362 -0.55897,0.58343 -0.751668,1.42686 -0.501777,2.19522 l 7.330302,22.53764 v 134.12487 h 4.999694 V 134.33493 c 0,0 -4.804595,-20.04521 12.500012,-20.31248 17.304609,-0.26727 12.500008,20.31248 12.500008,20.31248 v 132.00252 h 5.00022 V 131.83534 c -5.29e-4,-0.15557 -0.01561,-0.31075 -0.045,-0.46352 l 7.056411,-21.69688 c 0.249899,-0.76836 0.0572,-1.61179 -0.501772,-2.19522 0,0 -1.956948,-1.98052 -5.843569,-3.7362 -3.886631,-1.75568 -9.862187,-3.4494 -18.326531,-3.4494 z"
       id="rect817-5-0"
       inkscape:connector-curvature="0"
       sodipodi:nodetypes="cscccccczcccccccscc" />
    <path
       style="opacity:1;fill:none;fill-opacity:1;stroke:#000000;stroke-width:5;stroke-linejoin:round;stroke-miterlimit:4;stroke-dasharray:none;stroke-dashoffset:0;stroke-opacity:1"
       d="M 172.10526,81.671053 V 51.671052 h 30 v 30.000001"
       id="rect817-3"
       inkscape:connector-curvature="0"
       sodipodi:nodetypes="cccc" />
    <path
       style="opacity:1;fill:none;fill-opacity:1;stroke:#000000;stroke-width:5;stroke-linejoin:round;stroke-miterlimit:4;stroke-dasharray:none;stroke-dashoffset:0;stroke-opacity:1"
       id="path833-4"
       sodipodi:type="arc"
       sodipodi:cx="187.10526"
       sodipodi:cy="48.99836"
       sodipodi:rx="21.381561"
       sodipodi:ry="21.381561"
       sodipodi:start="0.78539816"
       sodipodi:end="2.3561945"
       d="m 202.2243,64.117407 a 21.381561,21.381561 0 0 1 -15.11904,6.262514 21.381561,21.381561 0 0 1 -15.11905,-6.262514"
       sodipodi:open="true" />
    <path
       style="opacity:1;fill:none;fill-opacity:1;stroke:#000000;stroke-width:5;stroke-linejoin:round;stroke-miterlimit:4;stroke-dasharray:none;stroke-dashoffset:0;stroke-opacity:1"
       d="m 55.119048,84.555263 h 30 V 54.55526 C 81.109227,58.565081 75.670743,60.817774 70,60.817774 c -5.670743,0 -11.109227,-2.252694 -15,-6.262514 z"
       id="rect817-3-3"
       inkscape:connector-curvature="0"
       sodipodi:nodetypes="cccscc" />
    <path
       style="opacity:1;fill:none;fill-opacity:1;stroke:#000000;stroke-width:1;stroke-linejoin:round;stroke-miterlimit:4;stroke-dasharray:none;stroke-dashoffset:0;stroke-opacity:1"
       d="m 10.322685,91.736671 h 30 V 61.736665 c -4.00983,4.009821 -9.44831,6.262514 -15.11905,6.262514 -5.67074,0 -11.10923,-2.252694 -15,-6.262514 z"
       id="rect817-3-3-6"
       inkscape:connector-curvature="0"
       sodipodi:nodetypes="cccscc" />
  </g>
</svg>
