<?xml version="1.0" encoding="UTF-8" standalone="no"?>
<!-- Created with Inkscape (http://www.inkscape.org/) -->

<svg
   xmlns:dc="http://purl.org/dc/elements/1.1/"
   xmlns:cc="http://creativecommons.org/ns#"
   xmlns:rdf="http://www.w3.org/1999/02/22-rdf-syntax-ns#"
   xmlns:svg="http://www.w3.org/2000/svg"
   xmlns="http://www.w3.org/2000/svg"
   xmlns:sodipodi="http://sodipodi.sourceforge.net/DTD/sodipodi-0.dtd"
   xmlns:inkscape="http://www.inkscape.org/namespaces/inkscape"
   width="210mm"
   height="297mm"
   viewBox="0 0 210 297"
   version="1.1"
   id="svg8"
   inkscape:version="0.92.4 (5da689c313, 2019-01-14)"
   sodipodi:docname="clip3.3.svg">
  <defs
     id="defs2" />
  <sodipodi:namedview
     id="base"
     pagecolor="#ffffff"
     bordercolor="#666666"
     borderopacity="1.0"
     inkscape:pageopacity="0.0"
     inkscape:pageshadow="2"
     inkscape:zoom="0.98994949"
     inkscape:cx="433.51484"
     inkscape:cy="512.55647"
     inkscape:document-units="mm"
     inkscape:current-layer="layer1"
     showgrid="false"
     inkscape:window-width="1278"
     inkscape:window-height="1368"
     inkscape:window-x="-7"
     inkscape:window-y="0"
     inkscape:window-maximized="0" />
  <metadata
     id="metadata5">
    <rdf:RDF>
      <cc:Work
         rdf:about="">
        <dc:format>image/svg+xml</dc:format>
        <dc:type
           rdf:resource="http://purl.org/dc/dcmitype/StillImage" />
        <dc:title></dc:title>
      </cc:Work>
    </rdf:RDF>
  </metadata>
  <g
     inkscape:label="Layer 1"
     inkscape:groupmode="layer"
     id="layer1">
    <path
       style="color:#000000;font-style:normal;font-variant:normal;font-weight:normal;font-stretch:normal;font-size:medium;line-height:normal;font-family:sans-serif;font-variant-ligatures:normal;font-variant-position:normal;font-variant-caps:normal;font-variant-numeric:normal;font-variant-alternates:normal;font-feature-settings:normal;text-indent:0;text-align:start;text-decoration:none;text-decoration-line:none;text-decoration-style:solid;text-decoration-color:#000000;letter-spacing:normal;word-spacing:normal;text-transform:none;writing-mode:lr-tb;direction:ltr;text-orientation:mixed;dominant-baseline:auto;baseline-shift:baseline;text-anchor:start;white-space:normal;shape-padding:0;clip-rule:nonzero;display:inline;overflow:visible;visibility:visible;opacity:1;isolation:auto;mix-blend-mode:normal;color-interpolation:sRGB;color-interpolation-filters:linearRGB;solid-color:#000000;solid-opacity:1;vector-effect:none;fill:#000000;fill-opacity:1;fill-rule:nonzero;stroke:none;stroke-width:18.89763832;stroke-linecap:butt;stroke-linejoin:round;stroke-miterlimit:4;stroke-dasharray:none;stroke-dashoffset:0;stroke-opacity:1;color-rendering:auto;image-rendering:auto;shape-rendering:auto;text-rendering:auto;enable-background:accumulate"
       d="M 411.25977 377.70117 C 379.2686 377.70117 356.68572 384.10264 341.99609 390.73828 C 327.30647 397.37392 319.9082 404.85937 319.9082 404.85938 C 317.79558 407.06443 317.06728 410.25221 318.01172 413.15625 L 345.14258 496.57227 A 9.4497638 9.4497638 0 0 0 345.11719 497.23633 L 345.11719 606.10938 C 310.88057 627.93443 288.12305 666.24038 288.12305 709.76172 C 288.12305 777.48949 343.22925 832.5957 410.95703 832.5957 C 478.6848 832.5957 533.79102 777.48949 533.79102 709.76172 C 533.79102 666.49664 511.30258 628.38523 477.40234 606.49609 L 477.40234 497.23633 A 9.4497638 9.4497638 0 0 0 477.36914 496.58008 L 504.5 413.15625 C 505.44443 410.25221 504.71608 407.06443 502.60352 404.85938 C 502.60352 404.85938 495.2072 397.37392 480.51758 390.73828 C 465.82795 384.10264 443.25093 377.70117 411.25977 377.70117 z M 364.01562 506.68555 L 458.50391 506.68555 L 458.50391 540.5918 C 445.49856 552.08924 428.7206 558.49805 411.25977 558.49805 C 393.80208 558.49805 377.02096 552.09119 364.01562 540.59766 L 364.01562 506.68555 z M 458.50391 564.0332 L 458.50391 596.50586 C 443.87167 590.33939 427.80541 586.92578 410.95703 586.92578 C 394.33986 586.92578 378.48579 590.25069 364.01562 596.25781 L 364.01562 564.03516 C 378.11527 572.69498 394.44777 577.39648 411.25977 577.39648 C 428.07379 577.39648 444.40526 572.69504 458.50391 564.0332 z M 410.95703 605.82422 C 468.47177 605.82422 514.89453 652.24695 514.89453 709.76172 C 514.89453 767.27645 468.47177 813.69922 410.95703 813.69922 C 353.4423 813.69922 307.01953 767.27645 307.01953 709.76172 C 307.01953 652.24695 353.4423 605.82422 410.95703 605.82422 z "
       transform="scale(0.26458333)"
       id="path815" />
    <path
       style="opacity:1;fill:none;fill-opacity:1;stroke:#000000;stroke-width:5;stroke-linejoin:round;stroke-miterlimit:4;stroke-dasharray:none;stroke-dashoffset:0;stroke-opacity:1"
       id="path833-7"
       sodipodi:type="arc"
       sodipodi:cx="145.12735"
       sodipodi:cy="11.648591"
       sodipodi:rx="21.381561"
       sodipodi:ry="21.381561"
       sodipodi:start="0.78539816"
       sodipodi:end="2.3561945"
       d="M 160.2464,26.767638 A 21.381561,21.381561 0 0 1 145.12735,33.030152 21.381561,21.381561 0 0 1 130.0083,26.767638"
       sodipodi:open="true" />
    <path
       style="color:#000000;font-style:normal;font-variant:normal;font-weight:normal;font-stretch:normal;font-size:medium;line-height:normal;font-family:sans-serif;font-variant-ligatures:normal;font-variant-position:normal;font-variant-caps:normal;font-variant-numeric:normal;font-variant-alternates:normal;font-feature-settings:normal;text-indent:0;text-align:start;text-decoration:none;text-decoration-line:none;text-decoration-style:solid;text-decoration-color:#000000;letter-spacing:normal;word-spacing:normal;text-transform:none;writing-mode:lr-tb;direction:ltr;text-orientation:mixed;dominant-baseline:auto;baseline-shift:baseline;text-anchor:start;white-space:normal;shape-padding:0;clip-rule:nonzero;display:inline;overflow:visible;visibility:visible;opacity:1;isolation:auto;mix-blend-mode:normal;color-interpolation:sRGB;color-interpolation-filters:linearRGB;solid-color:#000000;solid-opacity:1;vector-effect:none;fill:#000000;fill-opacity:1;fill-rule:nonzero;stroke:none;stroke-width:5;stroke-linecap:butt;stroke-linejoin:round;stroke-miterlimit:4;stroke-dasharray:none;stroke-dashoffset:0;stroke-opacity:1;color-rendering:auto;image-rendering:auto;shape-rendering:auto;text-rendering:auto;enable-background:accumulate"
       d="m 91.246869,25.06479 c -8.464324,0 -14.43733,1.693722 -18.323951,3.449402 -3.886628,1.75568 -5.844077,3.736206 -5.844087,3.736206 -0.55897,0.583423 -0.751668,1.426852 -0.501777,2.195215 l 7.330302,22.537642 V 86.605736 H 78.90705 V 59.105605 c 0,0 -4.804595,-20.045215 12.500012,-20.312484 17.304608,-0.26727 12.500008,20.312484 12.500008,20.312484 v 27.500131 h 5.00022 V 56.606017 c -5.5e-4,-0.155576 -0.0156,-0.310761 -0.045,-0.463537 l 7.05641,-21.696867 c 0.2499,-0.768363 0.0572,-1.611792 -0.50177,-2.195215 0,0 -1.95695,-1.980526 -5.84357,-3.736206 -3.88663,-1.75568 -9.862187,-3.449402 -18.326531,-3.449402 z"
       id="rect817-5"
       inkscape:connector-curvature="0"
       sodipodi:nodetypes="cscccccczcccccccscc" />
    <path
       style="opacity:1;fill:none;fill-opacity:1;stroke:#000000;stroke-width:5;stroke-linejoin:round;stroke-miterlimit:4;stroke-dasharray:none;stroke-dashoffset:0;stroke-opacity:1"
       d="M 19.47777,36.626039 V 6.6260384 H 49.477768 V 36.626039"
       id="rect817-3"
       inkscape:connector-curvature="0"
       sodipodi:nodetypes="cccc" />
    <path
       style="opacity:1;fill:none;fill-opacity:1;stroke:#000000;stroke-width:5;stroke-linejoin:round;stroke-miterlimit:4;stroke-dasharray:none;stroke-dashoffset:0;stroke-opacity:1"
       id="path833-4"
       sodipodi:type="arc"
       sodipodi:cx="34.477768"
       sodipodi:cy="3.9533448"
       sodipodi:rx="21.381561"
       sodipodi:ry="21.381561"
       sodipodi:start="0.78539816"
       sodipodi:end="2.3561945"
       d="M 49.596815,19.072392 A 21.381561,21.381561 0 0 1 34.477768,25.334906 21.381561,21.381561 0 0 1 19.358721,19.072392"
       sodipodi:open="true" />
    <path
       sodipodi:type="star"
       style="opacity:1;fill:#000000;fill-opacity:1;stroke:#000000;stroke-width:5;stroke-linejoin:round;stroke-miterlimit:4;stroke-dasharray:none;stroke-dashoffset:0;stroke-opacity:1"
       id="path900"
       sodipodi:sides="3"
       sodipodi:cx="48.108515"
       sodipodi:cy="109.10952"
       sodipodi:r1="20.745693"
       sodipodi:r2="10.372847"
       sodipodi:arg1="0.78539816"
       sodipodi:arg2="1.8325957"
       inkscape:flatsided="false"
       inkscape:rounded="0"
       inkscape:randomized="0"
       d="m 62.777937,123.77894 -17.35411,-4.65002 -17.354111,-4.65002 12.70409,-12.70409 12.704091,-12.704091 4.65002,17.354111 z"
       inkscape:transform-center-x="2.6846907"
       inkscape:transform-center-y="-2.6846911" />
    <path
       style="color:#000000;font-style:normal;font-variant:normal;font-weight:normal;font-stretch:normal;font-size:medium;line-height:normal;font-family:sans-serif;font-variant-ligatures:normal;font-variant-position:normal;font-variant-caps:normal;font-variant-numeric:normal;font-variant-alternates:normal;font-feature-settings:normal;text-indent:0;text-align:start;text-decoration:none;text-decoration-line:none;text-decoration-style:solid;text-decoration-color:#000000;letter-spacing:normal;word-spacing:normal;text-transform:none;writing-mode:lr-tb;direction:ltr;text-orientation:mixed;dominant-baseline:auto;baseline-shift:baseline;text-anchor:start;white-space:normal;shape-padding:0;clip-rule:nonzero;display:inline;overflow:visible;visibility:visible;opacity:1;isolation:auto;mix-blend-mode:normal;color-interpolation:sRGB;color-interpolation-filters:linearRGB;solid-color:#000000;solid-opacity:1;vector-effect:none;fill:#ff0000;fill-opacity:1;fill-rule:nonzero;stroke:none;stroke-width:18.89763832;stroke-linecap:butt;stroke-linejoin:round;stroke-miterlimit:4;stroke-dasharray:none;stroke-dashoffset:0;stroke-opacity:1;color-rendering:auto;image-rendering:auto;shape-rendering:auto;text-rendering:auto;enable-background:accumulate"
       d="M 156.07617 933.49805 C 152.88277 933.66661 149.99025 935.43999 148.39062 938.20898 L 117.86719 991.07812 L 87.349609 1043.9395 C 83.715049 1050.2372 88.258 1058.1091 95.529297 1058.1133 L 156.57812 1058.1133 L 217.61719 1058.1133 C 224.88848 1058.1095 229.43143 1050.2372 225.79688 1043.9395 L 195.28125 991.07812 L 164.75586 938.20898 C 162.97806 935.1315 159.62528 933.31054 156.07617 933.49805 z M 156.57422 981.88086 A 11.338583 11.338583 0 0 1 167.91211 993.2207 A 11.338583 11.338583 0 0 1 156.57422 1004.5586 A 11.338583 11.338583 0 0 1 145.23438 993.2207 A 11.338583 11.338583 0 0 1 156.57422 981.88086 z "
       transform="scale(0.26458333)"
       id="path902" />
    <path
       style="color:#000000;font-style:normal;font-variant:normal;font-weight:normal;font-stretch:normal;font-size:medium;line-height:normal;font-family:sans-serif;font-variant-ligatures:normal;font-variant-position:normal;font-variant-caps:normal;font-variant-numeric:normal;font-variant-alternates:normal;font-feature-settings:normal;text-indent:0;text-align:start;text-decoration:none;text-decoration-line:none;text-decoration-style:solid;text-decoration-color:#000000;letter-spacing:normal;word-spacing:normal;text-transform:none;writing-mode:lr-tb;direction:ltr;text-orientation:mixed;dominant-baseline:auto;baseline-shift:baseline;text-anchor:start;white-space:normal;shape-padding:0;clip-rule:nonzero;display:inline;overflow:visible;visibility:visible;opacity:1;isolation:auto;mix-blend-mode:normal;color-interpolation:sRGB;color-interpolation-filters:linearRGB;solid-color:#000000;solid-opacity:1;vector-effect:none;fill:#800080;fill-opacity:1;fill-rule:nonzero;stroke:none;stroke-width:18.89763832;stroke-linecap:butt;stroke-linejoin:round;stroke-miterlimit:4;stroke-dasharray:none;stroke-dashoffset:0;stroke-opacity:1;color-rendering:auto;image-rendering:auto;shape-rendering:auto;text-rendering:auto;enable-background:accumulate"
       d="M 95.529297 933.49219 C 88.258 933.49634 83.715049 941.36631 87.349609 947.66406 L 117.86719 1000.5273 L 148.39062 1053.3887 C 149.98845 1056.1605 152.8813 1057.9354 156.07617 1058.1055 C 159.62685 1058.2915 162.98 1056.469 164.75586 1053.3887 L 195.28125 1000.5273 L 225.79688 947.66406 C 229.43143 941.36631 224.88848 933.49597 217.61719 933.49219 L 156.57812 933.49219 L 95.529297 933.49219 z M 156.57422 981.88086 A 11.338583 11.338583 0 0 1 167.91211 993.2207 A 11.338583 11.338583 0 0 1 156.57422 1004.5586 A 11.338583 11.338583 0 0 1 145.23438 993.2207 A 11.338583 11.338583 0 0 1 156.57422 981.88086 z "
       transform="scale(0.26458333)"
       id="path902-3" />
    <path
       style="color:#000000;font-style:normal;font-variant:normal;font-weight:normal;font-stretch:normal;font-size:medium;line-height:normal;font-family:sans-serif;font-variant-ligatures:normal;font-variant-position:normal;font-variant-caps:normal;font-variant-numeric:normal;font-variant-alternates:normal;font-feature-settings:normal;text-indent:0;text-align:start;text-decoration:none;text-decoration-line:none;text-decoration-style:solid;text-decoration-color:#000000;letter-spacing:normal;word-spacing:normal;text-transform:none;writing-mode:lr-tb;direction:ltr;text-orientation:mixed;dominant-baseline:auto;baseline-shift:baseline;text-anchor:start;white-space:normal;shape-padding:0;clip-rule:nonzero;display:inline;overflow:visible;visibility:visible;opacity:1;isolation:auto;mix-blend-mode:normal;color-interpolation:sRGB;color-interpolation-filters:linearRGB;solid-color:#000000;solid-opacity:1;vector-effect:none;fill:#000000;fill-opacity:1;fill-rule:nonzero;stroke:none;stroke-width:18.89763832;stroke-linecap:butt;stroke-linejoin:round;stroke-miterlimit:4;stroke-dasharray:none;stroke-dashoffset:0;stroke-opacity:1;color-rendering:auto;image-rendering:auto;shape-rendering:auto;text-rendering:auto;enable-background:accumulate"
       d="M 664.13086 382.51562 C 632.14074 382.51589 609.55846 388.91723 594.86914 395.55273 C 580.17952 402.18838 572.78125 409.67379 572.78125 409.67383 C 570.66865 411.87888 569.9403 415.06667 570.88477 417.9707 L 598.01562 501.38672 A 9.4497638 9.4497638 0 0 0 597.98828 502.05078 L 597.98828 610.92383 C 589.28753 616.47035 581.33366 623.08573 574.30078 630.57617 L 602.52344 630.57617 C 619.6971 618.03621 640.87858 610.63867 663.83008 610.63867 C 686.78133 610.63867 707.9612 618.03647 725.13477 630.57617 L 753.36719 630.57617 C 746.49635 623.25731 738.74073 616.77781 730.27344 611.31055 L 730.27344 502.05078 A 9.4497638 9.4497638 0 0 0 730.24023 501.39453 L 757.37109 417.9707 C 758.31552 415.06667 757.58725 411.87888 755.47461 409.67383 C 755.47461 409.67383 748.07826 402.18838 733.38867 395.55273 C 718.69931 388.91723 696.12293 382.51589 664.13281 382.51562 L 664.13086 382.51562 z M 616.88867 511.5 L 711.37695 511.5 L 711.37695 545.40625 C 698.3716 556.90369 681.59366 563.3125 664.13281 563.3125 C 646.67514 563.3125 629.89399 556.90565 616.88867 545.41211 L 616.88867 511.5 z M 711.37695 568.84766 L 711.37695 601.32031 C 696.7447 595.15386 680.67846 591.74023 663.83008 591.74023 C 647.21293 591.74023 631.35882 595.06516 616.88867 601.07227 L 616.88867 568.84961 C 630.98831 577.50945 647.32083 582.21094 664.13281 582.21094 C 680.94683 582.21094 697.27829 577.50946 711.37695 568.84766 z "
       transform="scale(0.26458333)"
       id="path815-0" />
    <path
       inkscape:connector-curvature="0"
       style="color:#000000;font-style:normal;font-variant:normal;font-weight:normal;font-stretch:normal;font-size:medium;line-height:normal;font-family:sans-serif;font-variant-ligatures:normal;font-variant-position:normal;font-variant-caps:normal;font-variant-numeric:normal;font-variant-alternates:normal;font-feature-settings:normal;text-indent:0;text-align:start;text-decoration:none;text-decoration-line:none;text-decoration-style:solid;text-decoration-color:#000000;letter-spacing:normal;word-spacing:normal;text-transform:none;writing-mode:lr-tb;direction:ltr;text-orientation:mixed;dominant-baseline:auto;baseline-shift:baseline;text-anchor:start;white-space:normal;shape-padding:0;clip-rule:nonzero;display:inline;overflow:visible;visibility:visible;opacity:1;isolation:auto;mix-blend-mode:normal;color-interpolation:sRGB;color-interpolation-filters:linearRGB;solid-color:#000000;solid-opacity:1;vector-effect:none;fill:#800080;fill-opacity:1;fill-rule:nonzero;stroke:none;stroke-width:5;stroke-linecap:butt;stroke-linejoin:round;stroke-miterlimit:4;stroke-dasharray:none;stroke-dashoffset:0;stroke-opacity:1;color-rendering:auto;image-rendering:auto;shape-rendering:auto;text-rendering:auto;enable-background:accumulate"
       d="m 145.81412,244.96613 c -1.92386,0.001 -3.12585,2.08336 -2.16421,3.74964 l 8.07445,13.98673 8.07599,13.98625 c 0.42276,0.73337 1.18816,1.20298 2.03347,1.24799 0.93945,0.0492 1.82663,-0.43299 2.2965,-1.24799 l 8.07651,-13.98625 8.07392,-13.98673 c 0.96165,-1.66628 -0.24034,-3.74864 -2.1642,-3.74964 h -16.14993 z m 16.15147,12.80284 a 3.0000001,3.0000001 0 0 1 2.99982,3.00033 3.0000001,3.0000001 0 0 1 -2.99982,2.99982 3.0000001,3.0000001 0 0 1 -3.00033,-2.99982 3.0000001,3.0000001 0 0 1 3.00033,-3.00033 z"
       id="path902-3-3" />
  </g>
  <g
     inkscape:groupmode="layer"
     id="layer2"
     inkscape:label="Layer 2"
     style="display:inline" />
  <g
     inkscape:groupmode="layer"
     id="layer3"
     inkscape:label="Layer 3"
     style="display:none">
    <path
       sodipodi:type="star"
       style="opacity:1;fill:#ff0000;fill-opacity:1;stroke:#000000;stroke-width:5;stroke-linejoin:round;stroke-miterlimit:4;stroke-dasharray:none;stroke-dashoffset:0;stroke-opacity:1"
       id="path902-6"
       sodipodi:sides="3"
       sodipodi:cx="41.426785"
       sodipodi:cy="268.13489"
       sodipodi:r1="18.649591"
       sodipodi:r2="9.3247967"
       sodipodi:arg1="0.52359878"
       sodipodi:arg2="1.5707963"
       inkscape:flatsided="false"
       inkscape:rounded="0"
       inkscape:randomized="0"
       d="m 57.577804,277.45968 -16.151019,0 -16.15102,0 8.075509,-13.98719 8.075511,-13.98719 8.07551,13.98719 z"
       inkscape:transform-center-x="1.1414724e-06"
       inkscape:transform-center-y="-4.6623987" />
    <path
       sodipodi:type="star"
       style="opacity:1;fill:#800080;fill-opacity:1;stroke:#000000;stroke-width:5;stroke-linejoin:round;stroke-miterlimit:4;stroke-dasharray:none;stroke-dashoffset:0;stroke-opacity:1"
       id="path902-3-7"
       sodipodi:sides="3"
       sodipodi:cx="41.426785"
       sodipodi:cy="-258.81033"
       sodipodi:r1="18.649591"
       sodipodi:r2="9.3247967"
       sodipodi:arg1="0.52359878"
       sodipodi:arg2="1.5707963"
       inkscape:flatsided="false"
       inkscape:rounded="0"
       inkscape:randomized="0"
       d="m 57.577804,-249.48554 -16.151019,0 -16.15102,0 8.075509,-13.98719 8.075511,-13.98719 8.07551,13.98719 z"
       inkscape:transform-center-x="1.1414724e-06"
       inkscape:transform-center-y="4.6623891"
       transform="scale(1,-1)" />
    <circle
       style="opacity:1;fill:#ff0000;fill-opacity:1;stroke:none;stroke-width:5;stroke-linejoin:round;stroke-miterlimit:4;stroke-dasharray:none;stroke-dashoffset:0;stroke-opacity:1"
       id="path921-5"
       cx="41.426785"
       cy="262.78949"
       r="3" />
    <circle
       style="opacity:1;fill:#ff0000;fill-opacity:1;stroke:none;stroke-width:5;stroke-linejoin:round;stroke-miterlimit:4;stroke-dasharray:none;stroke-dashoffset:0;stroke-opacity:1"
       id="path921-4-0"
       cx="41.426785"
       cy="262.78949"
       r="3" />
  </g>
</svg>
