<?xml version="1.0" encoding="UTF-8" standalone="no"?>
<!-- Created with Inkscape (http://www.inkscape.org/) -->

<svg
   xmlns:dc="http://purl.org/dc/elements/1.1/"
   xmlns:cc="http://creativecommons.org/ns#"
   xmlns:rdf="http://www.w3.org/1999/02/22-rdf-syntax-ns#"
   xmlns:svg="http://www.w3.org/2000/svg"
   xmlns="http://www.w3.org/2000/svg"
   xmlns:sodipodi="http://sodipodi.sourceforge.net/DTD/sodipodi-0.dtd"
   xmlns:inkscape="http://www.inkscape.org/namespaces/inkscape"
   width="210mm"
   height="297mm"
   viewBox="0 0 210 297"
   version="1.1"
   id="svg8"
   inkscape:version="0.92.4 (5da689c313, 2019-01-14)"
   sodipodi:docname="clip_pieces_new.svg">
  <defs
     id="defs2" />
  <sodipodi:namedview
     id="base"
     pagecolor="#ffffff"
     bordercolor="#666666"
     borderopacity="1.0"
     inkscape:pageopacity="0.0"
     inkscape:pageshadow="2"
     inkscape:zoom="1.0054167"
     inkscape:cx="442.63526"
     inkscape:cy="560.70563"
     inkscape:document-units="mm"
     inkscape:current-layer="layer1"
     showgrid="false"
     inkscape:window-width="1278"
     inkscape:window-height="1368"
     inkscape:window-x="1273"
     inkscape:window-y="0"
     inkscape:window-maximized="0" />
  <metadata
     id="metadata5">
    <rdf:RDF>
      <cc:Work
         rdf:about="">
        <dc:format>image/svg+xml</dc:format>
        <dc:type
           rdf:resource="http://purl.org/dc/dcmitype/StillImage" />
        <dc:title></dc:title>
      </cc:Work>
    </rdf:RDF>
  </metadata>
  <g
     inkscape:label="Layer 1"
     inkscape:groupmode="layer"
     id="layer1">
    <path
       inkscape:connector-curvature="0"
       style="color:#000000;font-style:normal;font-variant:normal;font-weight:normal;font-stretch:normal;font-size:medium;line-height:normal;font-family:sans-serif;font-variant-ligatures:normal;font-variant-position:normal;font-variant-caps:normal;font-variant-numeric:normal;font-variant-alternates:normal;font-feature-settings:normal;text-indent:0;text-align:start;text-decoration:none;text-decoration-line:none;text-decoration-style:solid;text-decoration-color:#000000;letter-spacing:normal;word-spacing:normal;text-transform:none;writing-mode:lr-tb;direction:ltr;text-orientation:mixed;dominant-baseline:auto;baseline-shift:baseline;text-anchor:start;white-space:normal;shape-padding:0;clip-rule:nonzero;display:inline;overflow:visible;visibility:visible;opacity:1;isolation:auto;mix-blend-mode:normal;color-interpolation:sRGB;color-interpolation-filters:linearRGB;solid-color:#000000;solid-opacity:1;vector-effect:none;fill:#ff0000;fill-opacity:1;fill-rule:nonzero;stroke:none;stroke-width:5;stroke-linecap:butt;stroke-linejoin:round;stroke-miterlimit:4;stroke-dasharray:none;stroke-dashoffset:0;stroke-opacity:1;color-rendering:auto;image-rendering:auto;shape-rendering:auto;text-rendering:auto;enable-background:accumulate"
       d="m 123.45014,20.583749 c -0.84492,0.0446 -1.61024,0.51381 -2.03347,1.24644 l -8.07599,13.98829 -8.07445,13.98624 c -0.96164,1.66627 0.24035,3.74904 2.16421,3.75015 h 16.1525 16.14993 c 1.92386,0 3.12585,-2.08388 2.1642,-3.75015 l -8.07392,-13.98624 -8.07651,-13.98829 c -0.47038,-0.81425 -1.35747,-1.29605 -2.2965,-1.24644 z m 0.13177,12.80129 a 3.0000001,3.0000001 0 0 1 2.99982,3.00033 3.0000001,3.0000001 0 0 1 -2.99982,2.99982 3.0000001,3.0000001 0 0 1 -3.00033,-2.99982 3.0000001,3.0000001 0 0 1 3.00033,-3.00033 z"
       id="path902" />
    <path
       inkscape:connector-curvature="0"
       style="color:#000000;font-style:normal;font-variant:normal;font-weight:normal;font-stretch:normal;font-size:medium;line-height:normal;font-family:sans-serif;font-variant-ligatures:normal;font-variant-position:normal;font-variant-caps:normal;font-variant-numeric:normal;font-variant-alternates:normal;font-feature-settings:normal;text-indent:0;text-align:start;text-decoration:none;text-decoration-line:none;text-decoration-style:solid;text-decoration-color:#000000;letter-spacing:normal;word-spacing:normal;text-transform:none;writing-mode:lr-tb;direction:ltr;text-orientation:mixed;dominant-baseline:auto;baseline-shift:baseline;text-anchor:start;white-space:normal;shape-padding:0;clip-rule:nonzero;display:inline;overflow:visible;visibility:visible;opacity:1;isolation:auto;mix-blend-mode:normal;color-interpolation:sRGB;color-interpolation-filters:linearRGB;solid-color:#000000;solid-opacity:1;vector-effect:none;fill:#800080;fill-opacity:1;fill-rule:nonzero;stroke:none;stroke-width:5;stroke-linecap:butt;stroke-linejoin:round;stroke-miterlimit:4;stroke-dasharray:none;stroke-dashoffset:0;stroke-opacity:1;color-rendering:auto;image-rendering:auto;shape-rendering:auto;text-rendering:auto;enable-background:accumulate"
       d="m 17.956758,20.319041 c -1.923864,0.001 -3.125853,2.08336 -2.164209,3.74964 l 8.074443,13.98674 8.075991,13.98624 c 0.422759,0.73337 1.188159,1.20298 2.033469,1.24799 0.939451,0.0492 1.826639,-0.43299 2.296502,-1.24799 l 8.076509,-13.98624 8.073927,-13.98674 c 0.961642,-1.66628 -0.240347,-3.74864 -2.164209,-3.74964 H 34.10926 Z m 16.15147,12.80284 a 3.0000001,3.0000001 0 0 1 2.999817,3.00033 3.0000001,3.0000001 0 0 1 -2.999817,2.99982 3.0000001,3.0000001 0 0 1 -3.000333,-2.99982 3.0000001,3.0000001 0 0 1 3.000333,-3.00033 z"
       id="path902-3" />
    <path
       style="color:#000000;font-style:normal;font-variant:normal;font-weight:normal;font-stretch:normal;font-size:medium;line-height:normal;font-family:sans-serif;font-variant-ligatures:normal;font-variant-position:normal;font-variant-caps:normal;font-variant-numeric:normal;font-variant-alternates:normal;font-feature-settings:normal;text-indent:0;text-align:start;text-decoration:none;text-decoration-line:none;text-decoration-style:solid;text-decoration-color:#000000;letter-spacing:normal;word-spacing:normal;text-transform:none;writing-mode:lr-tb;direction:ltr;text-orientation:mixed;dominant-baseline:auto;baseline-shift:baseline;text-anchor:start;white-space:normal;shape-padding:0;clip-rule:nonzero;display:inline;overflow:visible;visibility:visible;opacity:1;isolation:auto;mix-blend-mode:normal;color-interpolation:sRGB;color-interpolation-filters:linearRGB;solid-color:#000000;solid-opacity:1;vector-effect:none;fill:#000000;fill-opacity:1;fill-rule:nonzero;stroke:none;stroke-width:5;stroke-linecap:butt;stroke-linejoin:round;stroke-miterlimit:4;stroke-dasharray:none;stroke-dashoffset:0;stroke-opacity:1;color-rendering:auto;image-rendering:auto;shape-rendering:auto;text-rendering:auto;enable-background:accumulate"
       d="m 129.86275,102.42364 c -8.46433,0 -14.43937,1.69372 -18.32602,3.4494 -3.88661,1.75568 -5.84408,3.7362 -5.84408,3.73621 -0.55896,0.58342 -0.75166,1.42685 -0.50177,2.19521 l 7.17837,22.07049 c -0.004,0.0585 -0.007,0.11707 -0.007,0.17571 v 49.92027 c -9.05844,5.77455 -15.079705,15.90967 -15.079705,27.42469 0,17.91963 14.580185,32.49982 32.499815,32.49982 17.91964,0 32.49983,-14.58019 32.49983,-32.49982 0,-11.44721 -5.95006,-21.53086 -14.91951,-27.32237 v -50.02259 c -0.001,-0.058 -0.004,-0.11588 -0.009,-0.17363 l 7.17837,-22.07257 c 0.24988,-0.76836 0.0572,-1.61179 -0.50178,-2.19521 0,0 -1.95694,-1.98053 -5.84357,-3.73621 -3.88662,-1.75568 -9.86012,-3.4494 -18.32444,-3.4494 z m -12.5,34.12712 h 25.00002 v 8.97103 c -3.44101,3.04203 -7.88017,4.7377 -12.50002,4.7377 -4.619,0 -9.05901,-1.69516 -12.5,-4.73614 z m 25.00002,15.17323 v 29.70602 c -3.87146,-1.63154 -8.12232,-2.53473 -12.58012,-2.53473 -4.39662,0 -8.59134,0.87971 -12.4199,2.4691 v -29.63986 c 3.73053,2.29123 8.05182,3.53518 12.5,3.53518 4.44872,0 8.76974,-1.24392 12.50002,-3.53571 z m -12.58012,32.17151 c 15.21744,0 27.50013,12.28267 27.50013,27.50012 0,15.21743 -12.28269,27.50013 -27.50013,27.50013 -15.21743,0 -27.50013,-12.2827 -27.50013,-27.50013 0,-15.21745 12.2827,-27.50012 27.50013,-27.50012 z"
       id="path815-3"
       inkscape:connector-curvature="0"
       sodipodi:nodetypes="cccccccssscccccscccccsccccsccscsssss" />
    <path
       style="color:#000000;font-style:normal;font-variant:normal;font-weight:normal;font-stretch:normal;font-size:medium;line-height:normal;font-family:sans-serif;font-variant-ligatures:normal;font-variant-position:normal;font-variant-caps:normal;font-variant-numeric:normal;font-variant-alternates:normal;font-feature-settings:normal;text-indent:0;text-align:start;text-decoration:none;text-decoration-line:none;text-decoration-style:solid;text-decoration-color:#000000;letter-spacing:normal;word-spacing:normal;text-transform:none;writing-mode:lr-tb;direction:ltr;text-orientation:mixed;dominant-baseline:auto;baseline-shift:baseline;text-anchor:start;white-space:normal;shape-padding:0;clip-rule:nonzero;display:inline;overflow:visible;visibility:visible;opacity:1;isolation:auto;mix-blend-mode:normal;color-interpolation:sRGB;color-interpolation-filters:linearRGB;solid-color:#000000;solid-opacity:1;vector-effect:none;fill:#000000;fill-opacity:1;fill-rule:nonzero;stroke:none;stroke-width:5;stroke-linecap:butt;stroke-linejoin:round;stroke-miterlimit:4;stroke-dasharray:none;stroke-dashoffset:0;stroke-opacity:1;color-rendering:auto;image-rendering:auto;shape-rendering:auto;text-rendering:auto;enable-background:accumulate"
       d="m 66.70575,100.29412 c -8.464324,0 -14.43733,1.69372 -18.323951,3.4494 -3.886628,1.75568 -5.844077,3.7362 -5.844087,3.7362 -0.55897,0.58343 -0.751668,1.42686 -0.501777,2.19522 l 7.330302,22.53764 v 134.12487 h 4.999694 V 134.33493 c 0,0 -4.804595,-20.04521 12.500012,-20.31248 17.304609,-0.26727 12.500008,20.31248 12.500008,20.31248 v 132.00252 h 5.00022 V 131.83534 c -5.29e-4,-0.15557 -0.01561,-0.31075 -0.045,-0.46352 l 7.056411,-21.69688 c 0.249899,-0.76836 0.0572,-1.61179 -0.501772,-2.19522 0,0 -1.956948,-1.98052 -5.843569,-3.7362 -3.886631,-1.75568 -9.862187,-3.4494 -18.326531,-3.4494 z"
       id="rect817-5-0"
       inkscape:connector-curvature="0"
       sodipodi:nodetypes="cscccccczcccccccscc" />
    <path
       style="color:#000000;font-style:normal;font-variant:normal;font-weight:normal;font-stretch:normal;font-size:medium;line-height:normal;font-family:sans-serif;font-variant-ligatures:normal;font-variant-position:normal;font-variant-caps:normal;font-variant-numeric:normal;font-variant-alternates:normal;font-feature-settings:normal;text-indent:0;text-align:start;text-decoration:none;text-decoration-line:none;text-decoration-style:solid;text-decoration-color:#000000;letter-spacing:normal;word-spacing:normal;text-transform:none;writing-mode:lr-tb;direction:ltr;text-orientation:mixed;dominant-baseline:auto;baseline-shift:baseline;text-anchor:start;white-space:normal;shape-padding:0;clip-rule:nonzero;display:inline;overflow:visible;visibility:visible;opacity:1;isolation:auto;mix-blend-mode:normal;color-interpolation:sRGB;color-interpolation-filters:linearRGB;solid-color:#000000;solid-opacity:1;vector-effect:none;fill:#000000;fill-opacity:1;fill-rule:nonzero;stroke:none;stroke-width:18.89763832;stroke-linecap:butt;stroke-linejoin:round;stroke-miterlimit:4;stroke-dasharray:none;stroke-dashoffset:0;stroke-opacity:1;color-rendering:auto;image-rendering:auto;shape-rendering:auto;text-rendering:auto;enable-background:accumulate"
       d="M 650.47656 185.8457 A 9.4497638 9.4497638 0 0 0 641.0293 195.29492 L 641.0293 308.68164 L 659.92578 308.68164 L 659.92578 262.0918 C 674.02441 270.75364 690.35587 275.45508 707.16992 275.45508 C 723.98395 275.45507 740.31542 270.75364 754.41406 262.0918 L 754.41406 308.68164 L 773.3125 308.68164 L 773.3125 195.29492 A 9.4497638 9.4497638 0 0 0 763.86328 185.8457 L 650.47656 185.8457 z M 659.92578 204.74414 L 754.41406 204.74414 L 754.41406 238.65625 C 741.40889 250.1491 724.62706 256.55664 707.16992 256.55664 C 689.71223 256.55664 672.93112 250.14783 659.92578 238.6543 L 659.92578 204.74414 z "
       transform="scale(0.26458333)"
       id="rect817-3" />
    <path
       style="color:#000000;font-style:normal;font-variant:normal;font-weight:normal;font-stretch:normal;font-size:medium;line-height:normal;font-family:sans-serif;font-variant-ligatures:normal;font-variant-position:normal;font-variant-caps:normal;font-variant-numeric:normal;font-variant-alternates:normal;font-feature-settings:normal;text-indent:0;text-align:start;text-decoration:none;text-decoration-line:none;text-decoration-style:solid;text-decoration-color:#000000;letter-spacing:normal;word-spacing:normal;text-transform:none;writing-mode:lr-tb;direction:ltr;text-orientation:mixed;dominant-baseline:auto;baseline-shift:baseline;text-anchor:start;white-space:normal;shape-padding:0;clip-rule:nonzero;display:inline;overflow:visible;visibility:visible;opacity:1;isolation:auto;mix-blend-mode:normal;color-interpolation:sRGB;color-interpolation-filters:linearRGB;solid-color:#000000;solid-opacity:1;vector-effect:none;fill:#000000;fill-opacity:1;fill-rule:nonzero;stroke:none;stroke-width:5;stroke-linecap:butt;stroke-linejoin:round;stroke-miterlimit:4;stroke-dasharray:none;stroke-dashoffset:0;stroke-opacity:1;color-rendering:auto;image-rendering:auto;shape-rendering:auto;text-rendering:auto;enable-background:accumulate"
       d="m 55,52.054688 a 2.50025,2.50025 0 0 0 -2.5,2.509765 l 0.119141,30 a 2.50025,2.50025 0 0 0 2.5,2.490235 h 30 a 2.50025,2.50025 0 0 0 2.5,-2.5 v -30 A 2.50025,2.50025 0 0 0 83.351562,52.787109 C 79.809903,56.328768 75.008663,58.318359 70,58.318359 c -5.008662,0 -9.799222,-1.99384 -13.205078,-5.503906 A 2.50025,2.50025 0 0 0 55,52.054688 Z m 27.619141,7.585937 V 82.054688 H 57.609375 l -0.08984,-22.363282 c 3.706513,2.317035 8.015593,3.626953 12.480469,3.626953 4.506831,0 8.855857,-1.328673 12.619141,-3.677734 z"
       id="rect817-3-3"
       inkscape:connector-curvature="0" />
    <path
       style="color:#000000;font-style:normal;font-variant:normal;font-weight:normal;font-stretch:normal;font-size:medium;line-height:normal;font-family:sans-serif;font-variant-ligatures:normal;font-variant-position:normal;font-variant-caps:normal;font-variant-numeric:normal;font-variant-alternates:normal;font-feature-settings:normal;text-indent:0;text-align:start;text-decoration:none;text-decoration-line:none;text-decoration-style:solid;text-decoration-color:#000000;letter-spacing:normal;word-spacing:normal;text-transform:none;writing-mode:lr-tb;direction:ltr;text-orientation:mixed;dominant-baseline:auto;baseline-shift:baseline;text-anchor:start;white-space:normal;shape-padding:0;clip-rule:nonzero;display:inline;overflow:visible;visibility:visible;opacity:1;isolation:auto;mix-blend-mode:normal;color-interpolation:sRGB;color-interpolation-filters:linearRGB;solid-color:#000000;solid-opacity:1;vector-effect:none;fill:#000000;fill-opacity:1;fill-rule:nonzero;stroke:none;stroke-width:1;stroke-linecap:butt;stroke-linejoin:round;stroke-miterlimit:4;stroke-dasharray:none;stroke-dashoffset:0;stroke-opacity:1;color-rendering:auto;image-rendering:auto;shape-rendering:auto;text-rendering:auto;enable-background:accumulate"
       d="m 10.203125,61.236328 a 0.50005,0.50005 0 0 0 -0.5,0.501953 l 0.1191406,30 a 0.50005,0.50005 0 0 0 0.5000004,0.498047 h 30 a 0.50005,0.50005 0 0 0 0.5,-0.5 v -30 A 0.50005,0.50005 0 0 0 39.96875,61.382812 C 36.052552,65.299002 30.741449,67.5 25.203125,67.5 19.664801,67.5 14.356286,65.298541 10.5625,61.388672 a 0.50005,0.50005 0 0 0 -0.359375,-0.152344 z m 29.619141,1.552734 V 91.236328 H 10.820312 L 10.707031,62.806641 C 14.620974,66.420763 19.782827,68.5 25.203125,68.5 c 5.43168,0 10.607798,-2.087553 14.619141,-5.710938 z"
       id="rect817-3-3-6"
       inkscape:connector-curvature="0" />
  </g>
</svg>
